<mxfile host="app.diagrams.net" agent="Mozilla/5.0 (Windows NT 10.0; Win64; x64) AppleWebKit/537.36 (KHTML, like Gecko) Chrome/129.0.0.0 Safari/537.36 Edg/129.0.0.0" version="24.7.14">
  <diagram name="第 1 页" id="JdO8HhEov-TxPUyxK-kK">
    <mxGraphModel dx="1367" dy="919" grid="1" gridSize="10" guides="1" tooltips="1" connect="1" arrows="1" fold="1" page="1" pageScale="1" pageWidth="827" pageHeight="1169" math="0" shadow="0">
      <root>
        <mxCell id="0" />
        <mxCell id="1" parent="0" />
        <mxCell id="gggR3p40mo_o2JFA4w1f-165" value="" style="rounded=0;whiteSpace=wrap;html=1;fillColor=none;" vertex="1" parent="1">
          <mxGeometry x="450" y="410" width="330" height="310" as="geometry" />
        </mxCell>
        <mxCell id="gggR3p40mo_o2JFA4w1f-157" value="" style="rounded=0;whiteSpace=wrap;html=1;fillColor=none;" vertex="1" parent="1">
          <mxGeometry x="30" y="410" width="360" height="310" as="geometry" />
        </mxCell>
        <mxCell id="gggR3p40mo_o2JFA4w1f-11" value="" style="html=1;whiteSpace=wrap;dashed=1;dashPattern=8 8;" vertex="1" parent="1">
          <mxGeometry x="70" y="500" width="310" height="50" as="geometry" />
        </mxCell>
        <mxCell id="gggR3p40mo_o2JFA4w1f-21" value="" style="edgeStyle=orthogonalEdgeStyle;rounded=0;orthogonalLoop=1;jettySize=auto;html=1;entryX=0.5;entryY=0;entryDx=0;entryDy=0;" edge="1" parent="1" source="gggR3p40mo_o2JFA4w1f-1" target="gggR3p40mo_o2JFA4w1f-11">
          <mxGeometry relative="1" as="geometry" />
        </mxCell>
        <mxCell id="gggR3p40mo_o2JFA4w1f-1" value="" style="html=1;whiteSpace=wrap;dashed=1;dashPattern=8 8;" vertex="1" parent="1">
          <mxGeometry x="70" y="420" width="310" height="50" as="geometry" />
        </mxCell>
        <mxCell id="gggR3p40mo_o2JFA4w1f-2" value="环境参数采集" style="rounded=0;whiteSpace=wrap;html=1;" vertex="1" parent="1">
          <mxGeometry x="80" y="430" width="60" height="30" as="geometry" />
        </mxCell>
        <mxCell id="gggR3p40mo_o2JFA4w1f-3" value="中尺度模式/WRF" style="rounded=0;whiteSpace=wrap;html=1;" vertex="1" parent="1">
          <mxGeometry x="160" y="430" width="60" height="30" as="geometry" />
        </mxCell>
        <mxCell id="gggR3p40mo_o2JFA4w1f-4" value="Simulink仿真引擎" style="rounded=0;whiteSpace=wrap;html=1;" vertex="1" parent="1">
          <mxGeometry x="80" y="510" width="120" height="30" as="geometry" />
        </mxCell>
        <mxCell id="gggR3p40mo_o2JFA4w1f-10" value="实时功率采集" style="rounded=0;whiteSpace=wrap;html=1;" vertex="1" parent="1">
          <mxGeometry x="310" y="430" width="60" height="30" as="geometry" />
        </mxCell>
        <mxCell id="gggR3p40mo_o2JFA4w1f-38" value="" style="edgeStyle=orthogonalEdgeStyle;rounded=0;orthogonalLoop=1;jettySize=auto;html=1;entryX=0.5;entryY=0;entryDx=0;entryDy=0;" edge="1" parent="1" source="gggR3p40mo_o2JFA4w1f-12" target="gggR3p40mo_o2JFA4w1f-22">
          <mxGeometry relative="1" as="geometry" />
        </mxCell>
        <mxCell id="gggR3p40mo_o2JFA4w1f-12" value="设备级仿真模型库" style="rounded=0;whiteSpace=wrap;html=1;" vertex="1" parent="1">
          <mxGeometry x="250" y="510" width="120" height="30" as="geometry" />
        </mxCell>
        <mxCell id="gggR3p40mo_o2JFA4w1f-13" value="" style="endArrow=classic;html=1;rounded=0;entryX=0;entryY=0.5;entryDx=0;entryDy=0;exitX=1;exitY=0.5;exitDx=0;exitDy=0;" edge="1" parent="1" source="gggR3p40mo_o2JFA4w1f-4" target="gggR3p40mo_o2JFA4w1f-12">
          <mxGeometry width="50" height="50" relative="1" as="geometry">
            <mxPoint x="390" y="350" as="sourcePoint" />
            <mxPoint x="440" y="300" as="targetPoint" />
          </mxGeometry>
        </mxCell>
        <mxCell id="gggR3p40mo_o2JFA4w1f-22" value="" style="html=1;whiteSpace=wrap;dashed=1;dashPattern=8 8;" vertex="1" parent="1">
          <mxGeometry x="70" y="580" width="310" height="50" as="geometry" />
        </mxCell>
        <mxCell id="gggR3p40mo_o2JFA4w1f-23" value="仿真过程执行" style="rounded=0;whiteSpace=wrap;html=1;" vertex="1" parent="1">
          <mxGeometry x="80" y="590" width="120" height="30" as="geometry" />
        </mxCell>
        <mxCell id="gggR3p40mo_o2JFA4w1f-36" value="" style="edgeStyle=orthogonalEdgeStyle;rounded=0;orthogonalLoop=1;jettySize=auto;html=1;entryX=0.5;entryY=0;entryDx=0;entryDy=0;" edge="1" parent="1" source="gggR3p40mo_o2JFA4w1f-24" target="gggR3p40mo_o2JFA4w1f-27">
          <mxGeometry relative="1" as="geometry" />
        </mxCell>
        <mxCell id="gggR3p40mo_o2JFA4w1f-24" value="功率仿真结果" style="rounded=0;whiteSpace=wrap;html=1;" vertex="1" parent="1">
          <mxGeometry x="250" y="590" width="120" height="30" as="geometry" />
        </mxCell>
        <mxCell id="gggR3p40mo_o2JFA4w1f-25" value="" style="endArrow=classic;html=1;rounded=0;entryX=0;entryY=0.5;entryDx=0;entryDy=0;exitX=1;exitY=0.5;exitDx=0;exitDy=0;" edge="1" parent="1" source="gggR3p40mo_o2JFA4w1f-23" target="gggR3p40mo_o2JFA4w1f-24">
          <mxGeometry width="50" height="50" relative="1" as="geometry">
            <mxPoint x="390" y="430" as="sourcePoint" />
            <mxPoint x="440" y="380" as="targetPoint" />
          </mxGeometry>
        </mxCell>
        <mxCell id="gggR3p40mo_o2JFA4w1f-27" value="" style="html=1;whiteSpace=wrap;dashed=1;dashPattern=8 8;" vertex="1" parent="1">
          <mxGeometry x="70" y="660" width="310" height="50" as="geometry" />
        </mxCell>
        <mxCell id="gggR3p40mo_o2JFA4w1f-30" value="RMSE" style="rounded=0;whiteSpace=wrap;html=1;" vertex="1" parent="1">
          <mxGeometry x="80" y="670" width="50" height="30" as="geometry" />
        </mxCell>
        <mxCell id="gggR3p40mo_o2JFA4w1f-31" value="MAE" style="rounded=0;whiteSpace=wrap;html=1;" vertex="1" parent="1">
          <mxGeometry x="140" y="670" width="60" height="30" as="geometry" />
        </mxCell>
        <mxCell id="gggR3p40mo_o2JFA4w1f-32" value="R&lt;sup&gt;2&lt;/sup&gt;" style="rounded=0;whiteSpace=wrap;html=1;" vertex="1" parent="1">
          <mxGeometry x="210" y="670" width="60" height="30" as="geometry" />
        </mxCell>
        <mxCell id="gggR3p40mo_o2JFA4w1f-34" value="" style="endArrow=classic;html=1;rounded=0;exitX=0;exitY=0.5;exitDx=0;exitDy=0;" edge="1" parent="1" source="gggR3p40mo_o2JFA4w1f-1">
          <mxGeometry width="50" height="50" relative="1" as="geometry">
            <mxPoint x="380" y="445" as="sourcePoint" />
            <mxPoint x="70" y="680" as="targetPoint" />
            <Array as="points">
              <mxPoint x="40" y="445" />
              <mxPoint x="40" y="680" />
            </Array>
          </mxGeometry>
        </mxCell>
        <mxCell id="gggR3p40mo_o2JFA4w1f-39" value="动态范围/&lt;div&gt;适应性评估&lt;/div&gt;" style="rounded=0;whiteSpace=wrap;html=1;" vertex="1" parent="1">
          <mxGeometry x="280" y="670" width="90" height="30" as="geometry" />
        </mxCell>
        <mxCell id="gggR3p40mo_o2JFA4w1f-59" value="" style="edgeStyle=orthogonalEdgeStyle;rounded=0;orthogonalLoop=1;jettySize=auto;html=1;" edge="1" parent="1" source="gggR3p40mo_o2JFA4w1f-52" target="gggR3p40mo_o2JFA4w1f-58">
          <mxGeometry relative="1" as="geometry" />
        </mxCell>
        <mxCell id="gggR3p40mo_o2JFA4w1f-52" value="数据采集与处理" style="rounded=0;whiteSpace=wrap;html=1;" vertex="1" parent="1">
          <mxGeometry x="460" y="420" width="310" height="50" as="geometry" />
        </mxCell>
        <mxCell id="gggR3p40mo_o2JFA4w1f-53" value="数据预处理" style="text;html=1;align=center;verticalAlign=middle;whiteSpace=wrap;rounded=0;" vertex="1" parent="1">
          <mxGeometry x="220" y="470" width="90" height="30" as="geometry" />
        </mxCell>
        <mxCell id="gggR3p40mo_o2JFA4w1f-54" value="仿真流程构建" style="text;html=1;align=center;verticalAlign=middle;whiteSpace=wrap;rounded=0;" vertex="1" parent="1">
          <mxGeometry x="130" y="550" width="90" height="30" as="geometry" />
        </mxCell>
        <mxCell id="gggR3p40mo_o2JFA4w1f-55" value="物理仿真验证" style="text;html=1;align=center;verticalAlign=middle;whiteSpace=wrap;rounded=0;" vertex="1" parent="1">
          <mxGeometry x="125" y="630" width="90" height="30" as="geometry" />
        </mxCell>
        <mxCell id="gggR3p40mo_o2JFA4w1f-77" value="" style="edgeStyle=orthogonalEdgeStyle;rounded=0;orthogonalLoop=1;jettySize=auto;html=1;entryX=0.5;entryY=0;entryDx=0;entryDy=0;" edge="1" parent="1" source="gggR3p40mo_o2JFA4w1f-58" target="gggR3p40mo_o2JFA4w1f-70">
          <mxGeometry relative="1" as="geometry" />
        </mxCell>
        <mxCell id="gggR3p40mo_o2JFA4w1f-58" value="" style="html=1;whiteSpace=wrap;dashed=1;dashPattern=8 8;" vertex="1" parent="1">
          <mxGeometry x="460" y="500" width="310" height="50" as="geometry" />
        </mxCell>
        <mxCell id="gggR3p40mo_o2JFA4w1f-60" value="研究模型集成" style="rounded=0;whiteSpace=wrap;html=1;" vertex="1" parent="1">
          <mxGeometry x="470" y="510" width="120" height="30" as="geometry" />
        </mxCell>
        <mxCell id="gggR3p40mo_o2JFA4w1f-61" value="智能化调度" style="rounded=0;whiteSpace=wrap;html=1;" vertex="1" parent="1">
          <mxGeometry x="640" y="510" width="120" height="30" as="geometry" />
        </mxCell>
        <mxCell id="gggR3p40mo_o2JFA4w1f-63" value="" style="endArrow=classic;html=1;rounded=0;exitX=1;exitY=0.5;exitDx=0;exitDy=0;exitPerimeter=0;" edge="1" parent="1" source="gggR3p40mo_o2JFA4w1f-60" target="gggR3p40mo_o2JFA4w1f-61">
          <mxGeometry width="50" height="50" relative="1" as="geometry">
            <mxPoint x="590" y="530" as="sourcePoint" />
            <mxPoint x="640" y="480" as="targetPoint" />
          </mxGeometry>
        </mxCell>
        <mxCell id="gggR3p40mo_o2JFA4w1f-83" value="" style="edgeStyle=orthogonalEdgeStyle;rounded=0;orthogonalLoop=1;jettySize=auto;html=1;entryX=0.5;entryY=0;entryDx=0;entryDy=0;entryPerimeter=0;" edge="1" parent="1" source="gggR3p40mo_o2JFA4w1f-70" target="gggR3p40mo_o2JFA4w1f-78">
          <mxGeometry relative="1" as="geometry" />
        </mxCell>
        <mxCell id="gggR3p40mo_o2JFA4w1f-70" value="" style="html=1;whiteSpace=wrap;dashed=1;dashPattern=8 8;" vertex="1" parent="1">
          <mxGeometry x="460" y="580" width="310" height="50" as="geometry" />
        </mxCell>
        <mxCell id="gggR3p40mo_o2JFA4w1f-74" value="动态&lt;span style=&quot;background-color: initial;&quot;&gt;范围/&lt;/span&gt;&lt;div&gt;&lt;span style=&quot;background-color: initial;&quot;&gt;适应性评估&lt;/span&gt;&lt;/div&gt;" style="rounded=0;whiteSpace=wrap;html=1;" vertex="1" parent="1">
          <mxGeometry x="680" y="590" width="80" height="30" as="geometry" />
        </mxCell>
        <mxCell id="gggR3p40mo_o2JFA4w1f-75" value="考核&lt;div&gt;指标评估&lt;/div&gt;" style="rounded=0;whiteSpace=wrap;html=1;" vertex="1" parent="1">
          <mxGeometry x="540" y="590" width="60" height="30" as="geometry" />
        </mxCell>
        <mxCell id="gggR3p40mo_o2JFA4w1f-76" value="长期稳定性评估" style="rounded=0;whiteSpace=wrap;html=1;" vertex="1" parent="1">
          <mxGeometry x="610" y="590" width="60" height="30" as="geometry" />
        </mxCell>
        <mxCell id="gggR3p40mo_o2JFA4w1f-78" value="" style="html=1;whiteSpace=wrap;dashed=1;dashPattern=8 8;" vertex="1" parent="1">
          <mxGeometry x="460" y="660" width="310" height="50" as="geometry" />
        </mxCell>
        <mxCell id="gggR3p40mo_o2JFA4w1f-79" value="干旱期功率验证" style="rounded=0;whiteSpace=wrap;html=1;" vertex="1" parent="1">
          <mxGeometry x="570" y="670" width="90" height="30" as="geometry" />
        </mxCell>
        <mxCell id="gggR3p40mo_o2JFA4w1f-80" value="&lt;span style=&quot;background-color: initial;&quot;&gt;梅雨季功率验证&lt;/span&gt;" style="rounded=0;whiteSpace=wrap;html=1;" vertex="1" parent="1">
          <mxGeometry x="470" y="670" width="90" height="30" as="geometry" />
        </mxCell>
        <mxCell id="gggR3p40mo_o2JFA4w1f-81" value="短临过程&lt;div&gt;功率验证&lt;/div&gt;" style="rounded=0;whiteSpace=wrap;html=1;" vertex="1" parent="1">
          <mxGeometry x="670" y="670" width="90" height="30" as="geometry" />
        </mxCell>
        <mxCell id="gggR3p40mo_o2JFA4w1f-82" value="数据验证" style="text;html=1;align=center;verticalAlign=middle;whiteSpace=wrap;rounded=0;" vertex="1" parent="1">
          <mxGeometry x="510" y="550" width="90" height="30" as="geometry" />
        </mxCell>
        <mxCell id="gggR3p40mo_o2JFA4w1f-84" value="高影响天气验证" style="text;html=1;align=center;verticalAlign=middle;whiteSpace=wrap;rounded=0;" vertex="1" parent="1">
          <mxGeometry x="510" y="630" width="90" height="30" as="geometry" />
        </mxCell>
        <mxCell id="gggR3p40mo_o2JFA4w1f-152" value="物理&lt;div&gt;仿真验证&lt;/div&gt;" style="rounded=0;whiteSpace=wrap;html=1;" vertex="1" parent="1">
          <mxGeometry x="470" y="590" width="60" height="30" as="geometry" />
        </mxCell>
        <mxCell id="gggR3p40mo_o2JFA4w1f-161" value="" style="html=1;shadow=0;dashed=0;align=center;verticalAlign=middle;shape=mxgraph.arrows2.arrow;dy=0.53;dx=28.67;notch=0;" vertex="1" parent="1">
          <mxGeometry x="390" y="550" width="60" height="30" as="geometry" />
        </mxCell>
        <mxCell id="gggR3p40mo_o2JFA4w1f-170" value="模拟控制实验" style="rounded=0;whiteSpace=wrap;html=1;" vertex="1" parent="1">
          <mxGeometry x="30" y="750" width="100" height="30" as="geometry" />
        </mxCell>
        <mxCell id="gggR3p40mo_o2JFA4w1f-171" value="电厂实地部署" style="rounded=0;whiteSpace=wrap;html=1;" vertex="1" parent="1">
          <mxGeometry x="190" y="750" width="100" height="30" as="geometry" />
        </mxCell>
        <mxCell id="gggR3p40mo_o2JFA4w1f-174" value="" style="endArrow=classic;html=1;rounded=0;entryX=0;entryY=0.5;entryDx=0;entryDy=0;exitX=1;exitY=0.5;exitDx=0;exitDy=0;" edge="1" parent="1" source="gggR3p40mo_o2JFA4w1f-170" target="gggR3p40mo_o2JFA4w1f-171">
          <mxGeometry width="50" height="50" relative="1" as="geometry">
            <mxPoint x="140" y="760" as="sourcePoint" />
            <mxPoint x="190" y="710" as="targetPoint" />
          </mxGeometry>
        </mxCell>
        <mxCell id="gggR3p40mo_o2JFA4w1f-175" value="" style="endArrow=classic;html=1;rounded=0;entryX=0;entryY=0.5;entryDx=0;entryDy=0;exitX=1;exitY=0.5;exitDx=0;exitDy=0;" edge="1" parent="1" source="gggR3p40mo_o2JFA4w1f-171">
          <mxGeometry width="50" height="50" relative="1" as="geometry">
            <mxPoint x="320" y="770" as="sourcePoint" />
            <mxPoint x="365" y="765" as="targetPoint" />
          </mxGeometry>
        </mxCell>
        <mxCell id="gggR3p40mo_o2JFA4w1f-181" value="" style="edgeStyle=orthogonalEdgeStyle;rounded=0;orthogonalLoop=1;jettySize=auto;html=1;" edge="1" parent="1" source="gggR3p40mo_o2JFA4w1f-176" target="gggR3p40mo_o2JFA4w1f-177">
          <mxGeometry relative="1" as="geometry" />
        </mxCell>
        <mxCell id="gggR3p40mo_o2JFA4w1f-176" value="多角度验证评估" style="rounded=0;whiteSpace=wrap;html=1;" vertex="1" parent="1">
          <mxGeometry x="520" y="750" width="100" height="30" as="geometry" />
        </mxCell>
        <mxCell id="gggR3p40mo_o2JFA4w1f-177" value="主动运维监控" style="rounded=0;whiteSpace=wrap;html=1;" vertex="1" parent="1">
          <mxGeometry x="670" y="750" width="110" height="30" as="geometry" />
        </mxCell>
        <mxCell id="gggR3p40mo_o2JFA4w1f-180" value="" style="edgeStyle=orthogonalEdgeStyle;rounded=0;orthogonalLoop=1;jettySize=auto;html=1;" edge="1" parent="1" source="gggR3p40mo_o2JFA4w1f-178" target="gggR3p40mo_o2JFA4w1f-176">
          <mxGeometry relative="1" as="geometry" />
        </mxCell>
        <mxCell id="gggR3p40mo_o2JFA4w1f-178" value="企业系统集成" style="rounded=0;whiteSpace=wrap;html=1;" vertex="1" parent="1">
          <mxGeometry x="364" y="750" width="100" height="30" as="geometry" />
        </mxCell>
        <mxCell id="gggR3p40mo_o2JFA4w1f-179" value="" style="endArrow=classic;html=1;rounded=0;entryX=0;entryY=0.5;entryDx=0;entryDy=0;" edge="1" parent="1" target="gggR3p40mo_o2JFA4w1f-176">
          <mxGeometry width="50" height="50" relative="1" as="geometry">
            <mxPoint x="470" y="765" as="sourcePoint" />
            <mxPoint x="510" y="720" as="targetPoint" />
          </mxGeometry>
        </mxCell>
        <mxCell id="gggR3p40mo_o2JFA4w1f-183" value="实时功率采集" style="rounded=0;whiteSpace=wrap;html=1;" vertex="1" parent="1">
          <mxGeometry x="235" y="430" width="60" height="30" as="geometry" />
        </mxCell>
      </root>
    </mxGraphModel>
  </diagram>
</mxfile>
